<?xml version="1.0" standalone="no"?>
<!DOCTYPE svg PUBLIC "-//W3C//DTD SVG 20010904//EN"
 "http://www.w3.org/TR/2001/REC-SVG-20010904/DTD/svg10.dtd">
<svg version="1.0" xmlns="http://www.w3.org/2000/svg"
 width="856.000000pt" height="856.000000pt" viewBox="0 0 856.000000 856.000000"
 preserveAspectRatio="xMidYMid meet">

<g transform="translate(0.000000,856.000000) scale(0.100000,-0.100000)"
fill="#000000" stroke="none">
<path d="M4025 8500 c-697 -44 -1361 -249 -1940 -600 -1118 -676 -1860 -1810
-2025 -3095 -133 -1037 112 -2070 696 -2932 696 -1027 1819 -1707 3034 -1837
458 -49 552 -48 1005 5 915 108 1768 517 2442 1173 299 291 529 589 746 966
57 99 182 363 235 495 197 492 287 940 299 1485 9 385 -14 629 -97 1035 -55
268 -188 643 -335 940 -157 320 -391 673 -595 899 -220 245 -353 373 -575 550
-504 403 -1101 687 -1740 827 -124 28 -388 67 -520 79 -166 14 -484 19 -630
10z m477 -720 c858 -55 1662 -421 2268 -1029 212 -213 377 -424 524 -669 300
-498 453 -985 502 -1594 15 -184 16 -237 5 -393 -14 -210 -34 -380 -62 -520
-138 -681 -458 -1287 -939 -1781 -669 -687 -1569 -1067 -2525 -1067 -941 0
-1825 365 -2490 1028 -203 202 -391 440 -531 673 -137 227 -302 594 -360 801
-46 167 -56 206 -79 320 -54 260 -67 403 -67 711 0 286 4 336 48 607 73 450
269 941 539 1346 225 339 563 688 895 923 666 471 1461 697 2272 644z"/>
<path d="M3145 7480 c-320 -30 -609 -182 -799 -420 -190 -238 -275 -493 -276
-820 0 -299 70 -497 252 -714 104 -124 204 -206 370 -303 78 -46 142 -83 144
-83 1 0 36 -20 78 -45 93 -55 534 -309 596 -343 25 -14 57 -33 72 -43 14 -11
28 -19 31 -19 2 0 51 -27 107 -60 l104 -60 65 64 c79 75 138 111 234 141 46
15 73 29 75 40 6 26 -33 143 -78 233 -22 45 -40 87 -40 91 0 5 43 42 95 82
l95 72 95 -72 c52 -40 95 -79 95 -86 0 -7 -17 -51 -39 -97 -44 -95 -84 -213
-79 -229 2 -6 38 -21 80 -33 97 -28 175 -76 245 -149 l55 -58 146 85 c81 46
201 115 267 153 510 296 729 422 783 452 122 68 289 230 386 375 43 65 57 91
100 186 72 158 91 486 41 715 -78 367 -310 671 -633 829 -168 83 -333 119
-547 119 -224 0 -399 -39 -580 -128 -137 -67 -211 -120 -318 -227 l-98 -99
-72 77 c-169 182 -397 305 -657 354 -115 21 -287 30 -395 20z"/>
<path d="M1846 5320 c-251 -40 -532 -202 -730 -421 -138 -153 -221 -310 -277
-524 -20 -78 -23 -113 -23 -260 0 -151 3 -182 27 -280 32 -128 109 -296 195
-424 67 -100 228 -267 324 -335 124 -87 333 -176 456 -193 24 -3 46 -12 49
-18 2 -7 -5 -41 -17 -76 -40 -122 -53 -209 -53 -354 0 -178 23 -298 90 -470
258 -656 918 -954 1570 -709 160 60 325 164 441 277 154 150 234 299 304 567
22 84 22 97 25 847 l4 762 -43 11 c-143 37 -198 65 -290 149 -31 28 -60 51
-66 51 -17 0 -120 -118 -173 -199 -59 -91 -39 -88 -189 -22 l-85 37 3 59 c1
33 7 90 13 128 l11 67 56 0 c91 0 302 39 302 56 0 2 -9 37 -20 76 -25 91 -25
179 -1 268 11 38 22 73 25 78 11 18 23 11 -534 332 -74 43 -234 135 -355 205
-121 70 -254 147 -295 170 -87 50 -216 97 -344 126 -104 23 -310 33 -400 19z"/>
<path d="M6373 5320 c-186 -34 -309 -81 -505 -196 -88 -52 -162 -94 -163 -94
-2 0 -36 -19 -77 -43 -40 -24 -93 -55 -118 -69 -50 -28 -440 -253 -622 -360
-65 -38 -118 -72 -118 -76 0 -4 9 -34 20 -66 26 -72 28 -226 5 -301 -20 -68
-20 -72 18 -84 52 -17 206 -41 268 -41 56 0 57 0 62 -32 21 -127 29 -210 21
-217 -12 -11 -206 -91 -219 -91 -5 0 -35 37 -65 82 -30 44 -80 108 -111 141
l-55 61 -35 -38 c-72 -80 -187 -143 -319 -174 l-35 -8 -3 -730 c-2 -620 0
-741 13 -809 80 -422 268 -676 635 -860 325 -163 677 -184 1008 -59 270 101
499 322 642 619 77 158 101 243 126 430 16 118 16 135 1 258 -9 73 -28 168
-42 212 -13 44 -25 85 -25 91 0 6 28 17 63 23 282 55 547 228 736 482 482 648
273 1478 -466 1848 -160 80 -250 102 -433 106 -85 2 -179 0 -207 -5z"/>
<path d="M4175 4696 c-114 -28 -233 -115 -290 -213 -76 -129 -80 -295 -10
-434 39 -76 130 -163 212 -202 65 -30 74 -32 188 -31 115 0 123 1 189 33 90
44 173 127 218 218 32 66 33 72 33 188 0 115 -1 123 -33 187 -96 197 -307 303
-507 254z"/>
</g>
</svg>
