<?xml version="1.0" standalone="no"?>
<!DOCTYPE svg PUBLIC "-//W3C//DTD SVG 20010904//EN"
 "http://www.w3.org/TR/2001/REC-SVG-20010904/DTD/svg10.dtd">
<svg version="1.0" xmlns="http://www.w3.org/2000/svg"
 width="1000.000000pt" height="1000.000000pt" viewBox="0 0 1000.000000 1000.000000"
 preserveAspectRatio="xMidYMid meet">

<g transform="translate(0.000000,1000.000000) scale(0.100000,-0.100000)"
fill="#000000" stroke="none">
<path d="M4595 9585 c-947 -87 -1804 -441 -2545 -1053 -148 -123 -459 -434
-582 -582 -588 -713 -930 -1513 -1043 -2440 -23 -184 -31 -637 -16 -837 87
-1138 562 -2164 1367 -2953 358 -351 711 -605 1144 -824 656 -333 1342 -496
2080 -496 1090 0 2099 365 2950 1068 148 123 459 434 582 582 703 852 1068
1860 1068 2950 0 1090 -365 2099 -1068 2950 -123 148 -434 459 -582 582 -746
616 -1604 969 -2560 1053 -199 18 -600 18 -795 0z m790 -795 c158 -16 398 -59
545 -96 531 -133 1021 -378 1464 -732 155 -123 445 -413 568 -568 475 -596
749 -1263 830 -2024 16 -148 16 -592 0 -740 -81 -759 -355 -1428 -826 -2020
-127 -159 -415 -447 -572 -572 -507 -405 -1082 -670 -1694 -782 -259 -47 -405
-60 -700 -60 -295 0 -441 13 -700 60 -1349 247 -2483 1235 -2914 2539 -136
413 -190 755 -190 1205 0 295 13 441 60 700 213 1164 977 2174 2051 2713 393
198 890 339 1323 376 69 6 143 13 165 15 69 7 485 -3 590 -14z"/>
<path d="M3855 8524 c-427 -66 -807 -336 -1003 -713 -59 -113 -112 -261 -138
-386 -25 -124 -26 -385 -1 -505 60 -285 185 -519 382 -715 135 -136 254 -213
508 -329 414 -190 646 -323 889 -507 l76 -58 64 62 c68 67 160 119 246 139
l52 11 -6 36 c-21 128 -74 268 -133 356 l-20 31 114 114 115 115 115 -115
c110 -110 114 -115 100 -137 -67 -101 -124 -251 -137 -359 l-6 -40 68 -18 c86
-22 178 -77 241 -143 l50 -53 92 68 c244 183 472 313 842 482 247 113 299 142
412 229 262 202 436 483 509 821 14 65 18 127 18 265 0 160 -3 193 -26 292
-125 527 -515 918 -1041 1040 -98 23 -134 27 -287 27 -130 1 -198 -4 -263 -17
-213 -43 -418 -137 -587 -268 l-101 -79 -60 50 c-94 78 -172 128 -293 185
-245 118 -527 160 -791 119z"/>
<path d="M2445 6085 c-513 -84 -929 -434 -1090 -918 -57 -170 -70 -252 -70
-437 0 -185 13 -267 70 -437 53 -160 109 -263 221 -408 152 -197 374 -358 607
-440 60 -21 76 -31 73 -44 -35 -118 -41 -400 -12 -545 100 -505 445 -899 926
-1056 151 -49 248 -64 425 -64 179 1 294 20 452 75 393 139 707 458 837 850
78 235 89 377 55 709 -36 356 -33 852 7 1076 6 32 6 32 -46 39 -74 10 -201 77
-265 139 l-54 53 -60 -51 c-76 -64 -131 -130 -184 -220 -22 -39 -42 -73 -43
-74 -3 -5 -295 76 -303 83 -3 4 12 76 34 161 l40 155 50 -6 c68 -9 194 9 290
39 111 36 107 31 88 101 -22 84 -20 214 5 293 19 58 19 64 4 69 -10 3 -78 33
-152 65 -241 106 -491 256 -819 491 -84 60 -194 131 -245 158 -101 53 -259
109 -381 134 -112 23 -347 28 -460 10z"/>
<path d="M7190 6090 c-261 -37 -446 -113 -690 -286 -203 -144 -352 -243 -485
-323 -124 -75 -354 -190 -460 -231 -33 -13 -63 -26 -67 -29 -4 -3 3 -33 14
-66 25 -73 27 -212 4 -295 -8 -30 -12 -58 -8 -62 15 -15 165 -57 242 -69 45
-6 108 -9 139 -6 l56 6 41 -158 41 -158 -151 -42 c-83 -23 -154 -41 -157 -41
-4 0 -19 25 -34 54 -15 30 -52 85 -81 122 -52 65 -159 164 -177 164 -5 0 -18
-11 -29 -25 -54 -69 -234 -164 -312 -165 -26 0 -28 -2 -22 -32 39 -221 43
-729 8 -1073 -26 -250 -27 -333 -6 -474 75 -508 432 -935 917 -1096 172 -57
252 -70 437 -69 130 0 187 5 267 22 277 60 504 181 699 376 195 196 316 422
376 699 33 157 29 441 -8 568 -3 13 13 22 73 44 384 135 697 455 828 848 56
170 70 252 70 437 0 183 -19 294 -77 459 -133 379 -440 689 -818 826 -189 68
-453 99 -630 75z"/>
<path d="M4868 5421 c-146 -48 -251 -158 -293 -305 -22 -77 -16 -199 14 -276
42 -110 140 -208 251 -252 80 -32 242 -32 320 0 111 44 208 141 252 252 32 79
32 241 0 322 -44 110 -141 207 -249 249 -81 31 -217 36 -295 10z"/>
</g>
</svg>
